<svg width="213" height="213" viewBox="0 0 213 213" fill="none" xmlns="http://www.w3.org/2000/svg">
<g clip-path="url(#clip0)">
<path d="M185.4 83.9H159.9L150.7 93.1C150.1 93.7 149.6 94.3 149.1 94.9H185.4C194 94.9 201.3 100.1 201.3 106.1C201.3 112.2 194 117.3 185.4 117.3H149.1C149.6 117.9 150.1 118.5 150.7 119.1L159.9 128.3H185.4C200.2 128.3 212.3 118.3 212.3 106.1C212.3 93.9 200.2 83.9 185.4 83.9Z" fill="#F15A22"/>
<path d="M119.2 150.6C118.6 150 118 149.5 117.4 149V185.3C117.4 193.9 112.2 201.2 106.2 201.2C100.1 201.2 95 193.9 95 185.3V149C94.4 149.5 93.8 150 93.2 150.6L84 159.8V185.3C84 200.1 94 212.2 106.2 212.2C118.5 212.2 128.4 200.1 128.4 185.3V159.8L119.2 150.6Z" fill="#F15A22"/>
<path d="M52.4 128.4L61.6 119.2C62.2 118.6 62.7 118 63.2 117.4H26.9C18.3 117.4 11 112.2 11 106.2C11 100.1 18.3 95 26.9 95H63.2C62.7 94.4 62.2 93.8 61.6 93.2L52.4 84H26.9C12.1 83.9 0 93.9 0 106.1C0 118.4 12.1 128.3 26.9 128.3H52.4V128.4Z" fill="#F15A22"/>
<path d="M93.0999 61.6C93.6999 62.2 94.2999 62.7 94.8999 63.2V26.9C94.8999 18.3 100.1 11 106.1 11C112.2 11 117.3 18.3 117.3 26.9V63.2C117.9 62.7 118.5 62.2 119.1 61.6L128.3 52.4V26.9C128.3 12.1 118.3 0 106.1 0C93.8999 0 83.8999 12.1 83.8999 26.9V52.4L93.0999 61.6Z" fill="#F15A22"/>
<path d="M146.4 34.4L119.1 61.7C111.9 68.9 100.2 68.9 93 61.7L65.8 34.4C55.3 23.9 39.7 22.5 31.1 31.1C22.4 39.8 23.9 55.4 34.4 65.8L61.7 93.1C68.9 100.3 68.9 112 61.7 119.2L34.4 146.5C23.9 157 22.5 172.6 31.1 181.2C39.8 189.9 55.4 188.4 65.8 177.9L93.1 150.6C100.3 143.4 112 143.4 119.2 150.6L146.5 177.9C157 188.4 172.6 189.8 181.2 181.2C189.9 172.5 188.4 156.9 177.9 146.5L150.6 119.2C143.4 112 143.4 100.3 150.6 93.1L177.9 65.8C188.4 55.3 189.8 39.7 181.2 31.1C172.5 22.4 156.9 23.9 146.4 34.4ZM170.1 58L142.8 85.3C131.3 96.8 131.3 115.5 142.8 127L170.1 154.3C176.2 160.4 177.7 169.2 173.4 173.5C169.1 177.8 160.3 176.3 154.2 170.2L127 142.9C115.5 131.4 96.8 131.4 85.3 142.9L58 170.1C51.9 176.2 43.1 177.7 38.8 173.4C34.5 169.1 36 160.3 42.1 154.2L69.4 127C80.9 115.5 80.9 96.8 69.4 85.3L42.1 58C36 52 34.6 43.2 38.9 38.9C43.2 34.5 52 36 58 42.1L85.3 69.4C96.8 80.9 115.5 80.9 127 69.4L154.3 42.1C160.4 36 169.2 34.5 173.5 38.8C177.7 43.2 176.2 52 170.1 58Z" fill="#F15A22"/>
</g>
<defs>
<clipPath id="clip0">
<rect width="212.3" height="212.3" fill="white"/>
</clipPath>
</defs>
</svg>
