<svg width="23" height="20" viewBox="0 0 23 20" fill="none" xmlns="http://www.w3.org/2000/svg">
<path d="M21.869 10.1345C21.6563 8.88958 21.4561 7.71974 21.3059 6.63747C20.8805 3.55959 19.9234 2.25837 18.9662 1.77041V1.09478C18.9662 0.487957 18.472 0 17.8715 0H17.0269C16.4264 0 15.9321 0.487957 15.9321 1.09478V2.28339C14.2306 3.203 12.9231 3.30935 12.3976 3.30935C12.2662 3.30935 12.1911 3.3031 12.1786 3.3031H10.6147L10.5709 3.30935C10.5584 3.30935 10.4833 3.31561 10.3519 3.31561C9.82642 3.31561 8.5252 3.203 6.81735 2.28965V1.09478C6.82361 0.487957 6.33565 0 5.72883 0H4.88429C4.28373 0 3.78951 0.487957 3.78951 1.09478V1.77041C2.82611 2.25211 1.86896 3.55959 1.44982 6.63747C1.29968 7.71348 1.09949 8.88958 0.886793 10.1282C0.167369 14.3447 -0.508264 18.3234 0.542721 19.5683C1.06821 20.1939 1.93778 20.1376 3.08886 19.3119C3.62061 18.9302 4.11482 18.4298 4.61529 17.7729C6.16674 15.7272 8.28748 14.6825 10.9149 14.6825H11.8533C14.4808 14.6825 16.5953 15.721 18.153 17.7729C18.6472 18.4235 19.1477 18.9302 19.6794 19.3119C20.3175 19.7685 20.8493 20 21.3059 20C21.6688 20 21.9878 19.8499 22.2255 19.5746C23.264 18.3234 22.5884 14.3447 21.869 10.1345Z" fill="#FF5400"/>
</svg>
