<svg width="16" height="20" viewBox="0 0 16 20" fill="none" xmlns="http://www.w3.org/2000/svg">
<path d="M14.1988 17.417H12.909V16.1283C12.909 15.4181 12.3301 14.8396 11.6193 14.8396H11.5447L10.5588 6.44903H10.9773L12.9148 5.16037V0H12.267C11.9116 0 11.6193 0.286371 11.6193 0.647196V1.93586H9.03402V0.647196C9.03402 0.292099 8.74741 0 8.38628 0H7.09652C6.74112 0 6.44878 0.286371 6.44878 0.647196V1.93586H3.86354V0.647196C3.86354 0.292099 3.57692 0 3.21579 0H2.57378V5.16037L4.51128 6.44903H4.92973L3.94379 14.8396H3.86927C3.15847 14.8396 2.57951 15.4181 2.57951 16.1283V17.417H1.28976L0 20H15.5L14.1988 17.417Z" fill="#FF5400"/>
</svg>
