<svg width="27" height="20" viewBox="0 0 27 20" fill="none" xmlns="http://www.w3.org/2000/svg">
<path d="M26.0244 10.5973C26.0244 8.27873 25.9794 6.80796 25.7932 5.89595C25.7932 5.8831 25.7868 5.87027 25.7868 5.85742C25.7547 5.67759 25.7161 5.5106 25.6647 5.33718C25.4207 4.50225 24.9518 3.76365 24.3224 3.19204C24.0784 2.96725 23.8086 2.76814 23.5196 2.60115C23.5196 2.60115 23.5132 2.60116 23.5132 2.59473C22.5755 1.8754 21.2203 1.26526 19.5954 0.815676C17.7264 0.301867 15.4913 0 13.0893 0C10.6872 0 8.45215 0.301867 6.58317 0.815676C4.99679 1.25241 3.66731 1.84328 2.72961 2.53692C2.40848 2.71033 2.11304 2.92229 1.84329 3.17277C1.36802 3.59666 0.989081 4.11689 0.719332 4.70777C0.629415 4.90044 0.558767 5.10598 0.494541 5.3115C0.14772 6.26847 0 7.90623 0 10.5909C0 15.7868 0.0642261 19.7302 2.26076 19.6468C2.28645 19.6468 2.30572 19.6468 2.33141 19.6468C4.06551 19.5697 4.81053 16.596 4.96468 12.3892C5.0867 12.4342 5.23442 12.4727 5.40141 12.4984C5.40141 14.3353 6.89146 15.8189 8.7219 15.8189C10.5588 15.8189 12.0424 14.3353 12.0424 12.4984C12.0424 11.1304 11.1753 9.87154 9.96789 9.3192C9.97431 9.24213 9.98715 9.15864 9.98715 9.08157C9.98715 8.921 9.96146 8.76686 9.92935 8.63198C10.9313 8.62556 11.991 8.56134 13.1021 8.43931C14.2068 8.59345 15.2665 8.67693 16.2749 8.70262C16.2492 8.80539 16.2364 8.90816 16.2364 9.01734C16.2364 9.11368 16.2428 9.2036 16.262 9.29352C15.0289 9.83302 14.1362 11.1047 14.1362 12.4984C14.1362 14.3353 15.6198 15.8189 17.4566 15.8189C19.2871 15.8189 20.7771 14.0719 20.7771 12.2351C20.9441 12.2415 21.0854 12.2415 21.2074 12.2286C21.3616 16.6474 22.158 20 23.8279 20C26.4162 20 26.0244 15.7932 26.0244 10.5973Z" fill="#FF5400"/>
<path d="M5.67106 0.693639C5.57472 0.687216 5.48481 0.687225 5.38847 0.687225C3.53233 0.687225 2.01017 1.60566 1.84961 2.77457C2.11936 2.53051 2.4148 2.31856 2.73593 2.13873C3.48737 1.57996 4.48288 1.09184 5.67106 0.693639Z" fill="#FF5400"/>
<path d="M23.5194 2.19011C23.8084 2.36352 24.0846 2.5562 24.3286 2.78741C24.1809 1.61208 22.6523 0.687225 20.7898 0.687225C20.6999 0.687225 20.6035 0.687216 20.52 0.693639C21.7339 1.09826 22.7551 1.60565 23.5194 2.19011C23.513 2.19011 23.5194 2.19011 23.5194 2.19011Z" fill="#FF5400"/>
</svg>
