<svg width="20" height="20" viewBox="0 0 20 20" fill="none" xmlns="http://www.w3.org/2000/svg">
<path d="M2.21885 7.75C2.21885 9.3125 2.68761 10.75 3.46885 11.9688L0.28125 15.125C-0.09375 15.5 -0.09375 16.0938 0.28125 16.4375L1.09375 17.25C1.46875 17.625 2.06251 17.625 2.40625 17.25L5.53125 14.125C6.78125 15 8.31245 15.5 9.93745 15.5C10.4062 15.5 10.8749 15.4375 11.3124 15.375L2.34365 6.375C2.2499 6.8125 2.21865 7.28124 2.21865 7.75H2.21885Z" fill="#FF5400"/>
<path d="M17.7187 7.75C17.7187 3.4688 14.2499 0 9.9687 0C6.6249 0 3.7811 2.125 2.6875 5.0938L12.6251 15.0314C15.6251 13.9376 17.7189 11.0938 17.7189 7.7502L17.7187 7.75Z" fill="#FF5400"/>
<path d="M19.9064 17.6562C19.9064 18.9507 18.8571 20 17.5626 20C16.268 20 15.2188 18.9508 15.2188 17.6562C15.2188 16.3616 16.268 15.3124 17.5626 15.3124C18.8571 15.3124 19.9064 16.3616 19.9064 17.6562Z" fill="#FF5400"/>
</svg>
